<svg width="24" height="24" viewBox="0 0 24 24" fill="none" xmlns="http://www.w3.org/2000/svg">
<path d="M14.25 7.5V5.25C14.25 4.72689 14.25 4.46534 14.1925 4.25074C14.0364 3.6684 13.5816 3.21354 12.9992 3.0575C12.7846 3 12.5231 3 12 3C11.4769 3 11.2153 3 11.0007 3.0575C10.4184 3.21354 9.96351 3.6684 9.80747 4.25074C9.74997 4.46534 9.74997 4.72689 9.74997 5.25V7.5C9.74997 8.56066 9.74997 9.09099 9.42046 9.4205C9.09096 9.75 8.56063 9.75 7.49997 9.75L5.24997 9.75C4.72686 9.75 4.46531 9.75 4.25071 9.8075C3.66837 9.96354 3.21351 10.4184 3.05747 11.0007C2.99997 11.2153 2.99997 11.4769 2.99997 12C2.99997 12.5231 2.99997 12.7847 3.05747 12.9993C3.21351 13.5816 3.66837 14.0365 4.25071 14.1925C4.46531 14.25 4.72686 14.25 5.24997 14.25H7.49997C8.56063 14.25 9.09096 14.25 9.42046 14.5795C9.74997 14.909 9.74997 15.4393 9.74997 16.5V18.75C9.74997 19.2731 9.74997 19.5347 9.80747 19.7493C9.96351 20.3316 10.4184 20.7865 11.0007 20.9425C11.2153 21 11.4769 21 12 21C12.5231 21 12.7846 21 12.9992 20.9425C13.5816 20.7865 14.0364 20.3316 14.1925 19.7493C14.25 19.5347 14.25 19.2731 14.25 18.75V16.5C14.25 15.4393 14.25 14.909 14.5795 14.5795C14.909 14.25 15.4393 14.25 16.5 14.25H18.75C19.2731 14.25 19.5346 14.25 19.7492 14.1925C20.3316 14.0365 20.7864 13.5816 20.9425 12.9993C21 12.7847 21 12.5231 21 12C21 11.4769 21 11.2153 20.9425 11.0007C20.7864 10.4184 20.3316 9.96354 19.7492 9.8075C19.5346 9.75 19.2731 9.75 18.75 9.75H16.5C15.4393 9.75 14.909 9.75 14.5795 9.4205C14.25 9.09099 14.25 8.56066 14.25 7.5Z" stroke="#101A23" stroke-width="1.5" stroke-linecap="round" stroke-linejoin="round"/>
</svg>
